<?xml version="1.0" standalone="no"?>
<!DOCTYPE svg PUBLIC "-//W3C//DTD SVG 20010904//EN"
 "http://www.w3.org/TR/2001/REC-SVG-20010904/DTD/svg10.dtd">
<svg version="1.0" xmlns="http://www.w3.org/2000/svg"
 width="38px" height="38px" viewBox="0 0 108.000000 136.000000"
 preserveAspectRatio="xMidYMid meet">

<g transform="translate(0.000000,136.000000) scale(0.100000,-0.100000)"
fill="#c9d1d3" stroke="none">
<path d="M415 1257 c-145 -48 -237 -147 -269 -287 -32 -140 -20 -180 88 -285
103 -101 114 -125 96 -212 -10 -53 -10 -69 1 -91 29 -58 36 -62 128 -63 l86
-2 -82 -9 c-124 -15 -103 -30 30 -23 163 9 197 14 197 31 0 8 4 14 9 14 15 0
41 60 41 93 0 16 -5 47 -11 68 -16 52 0 88 72 164 120 128 140 177 119 295
-23 130 -102 236 -214 286 -50 23 -77 28 -156 31 -59 2 -110 -2 -135 -10z
m310 -101 c71 -32 115 -96 115 -167 0 -64 -40 -116 -148 -189 -88 -61 -137
-103 -154 -134 -8 -14 -5 -25 9 -45 35 -48 35 -51 8 -61 -34 -13 -101 4 -132
33 -15 13 -23 32 -23 52 0 49 47 101 183 204 101 77 130 125 107 180 -33 81
-197 57 -309 -45 l-42 -38 25 -13 c38 -20 35 -58 -6 -83 -42 -25 -69 -25 -118
0 -52 27 -61 59 -30 117 27 50 107 129 170 166 106 62 241 71 345 23z m-110
-687 l20 -20 -33 -30 c-37 -33 -93 -39 -130 -13 -36 25 -23 67 28 87 27 11 94
-3 115 -24z"/>
<path d="M473 271 c-107 -8 -118 -21 -16 -21 111 0 233 11 233 21 0 10 -83 9
-217 0z"/>
<path d="M433 233 c-29 -2 -53 -9 -53 -14 0 -12 277 -1 300 12 15 8 -139 9
-247 2z"/>
<path d="M493 201 c-56 -3 -105 -9 -109 -13 -9 -9 215 -10 269 -2 20 4 37 11
37 15 0 9 -30 9 -197 0z"/>
<path d="M433 163 c-30 -2 -53 -9 -53 -15 0 -14 290 -2 304 13 10 9 -134 10
-251 2z"/>
<path d="M585 133 c-22 -1 -77 -5 -122 -9 -62 -4 -83 -9 -83 -20 0 -11 28 -14
155 -14 l155 0 0 25 c0 27 0 27 -105 18z"/>
</g>
</svg>
